<svg width="21" height="26" viewBox="0 0 21 26" fill="none" xmlns="http://www.w3.org/2000/svg">
<path d="M20.5 12.5166C20.5 15.6821 20.5019 18.8471 20.4991 22.0126C20.4981 23.4456 19.6721 24.5934 18.3769 24.9405C18.0883 25.0176 17.7794 25.0447 17.4794 25.0452C14.8052 25.0528 8.6304 25.0533 5.95621 25.0486C4.19664 25.0452 2.96309 23.8169 2.94935 22.0526C2.93987 20.8438 2.94745 19.635 2.94745 18.4262C2.94745 18.3829 2.94698 18.3391 2.95124 18.2958C2.98678 17.9392 3.23368 17.7073 3.56446 17.7192C3.8924 17.7307 4.12603 17.9792 4.12792 18.3415C4.13266 19.246 4.12982 20.1501 4.12982 21.0547C4.12982 21.368 4.12935 21.6807 4.12982 21.994C4.13172 23.1547 4.83782 23.8683 5.98701 23.8688C8.53136 23.8698 14.5763 23.8702 17.1207 23.8674C17.3794 23.8669 17.6419 23.8693 17.8964 23.8303C18.6997 23.7074 19.2911 23.0214 19.311 22.2044C19.32 21.8393 19.3138 21.4741 19.3138 21.109C19.3138 15.0827 19.3143 9.05643 19.3134 3.03017C19.3134 2.15275 18.8561 1.48575 18.0917 1.26913C17.9031 1.21581 17.6998 1.19391 17.5031 1.19344C14.8208 1.1901 8.63751 1.1901 5.95479 1.19201C4.85204 1.19296 4.13219 1.9147 4.13029 3.01874C4.1284 4.24465 4.13077 5.47104 4.12887 6.69696C4.1284 7.05021 3.97154 7.27254 3.68388 7.34538C3.36969 7.42489 3.06166 7.24826 2.98062 6.93262C2.95503 6.83312 2.9484 6.72648 2.9484 6.62317C2.9465 5.42296 2.94224 4.22323 2.9484 3.02302C2.95598 1.5205 3.86491 0.356955 5.26338 0.0651162C5.49843 0.0160796 5.74438 0.00417755 5.98559 0.00370147C8.64225 -0.000583286 14.8 -0.00105603 17.4566 0.00180047C18.9717 0.00322872 20.1024 0.87589 20.4204 2.29748C20.4806 2.56599 20.4957 2.84926 20.4962 3.12538C20.5019 6.25563 20.5 9.38636 20.5 12.5166Z" fill="#EBE7E5"/>
<path d="M11.2757 13.2049C11.1246 13.2049 11.0302 13.2049 10.9355 13.2049C8.39112 13.2049 3.25408 13.142 0.709265 13.141C0.298398 13.141 0.0709281 12.983 0.0112173 12.6645C-0.0532325 12.3212 0.166181 12.0151 0.511651 11.9741C0.623016 11.9608 0.736277 11.9637 0.848591 11.9637C3.34128 11.9632 8.42619 12.0266 10.9189 12.0266C11.0198 12.0266 11.1208 12.0266 11.2876 12.0266C11.0881 11.7847 10.9322 11.5938 10.7739 11.4048C10.5066 11.0854 10.2336 10.7707 9.97062 10.4479C9.71803 10.138 9.73604 9.79232 10.0047 9.56856C10.2701 9.34766 10.6222 9.39146 10.8748 9.68949C11.5819 10.5236 12.2861 11.3601 12.9879 12.198C13.2173 12.4717 13.2249 12.7364 13.0045 12.9997C12.2974 13.8452 11.5847 14.6855 10.8743 15.5277C10.7042 15.7296 10.4957 15.8281 10.2303 15.7548C10 15.6915 9.82371 15.5344 9.82087 15.3049C9.8185 15.1159 9.88532 14.8898 10.0005 14.7417C10.3668 14.2685 10.7696 13.8243 11.1577 13.3687C11.189 13.3311 11.2151 13.2892 11.2757 13.2049Z" fill="#EBE7E5"/>
</svg>
