<svg width="191" height="38" viewBox="0 0 191 38" fill="none" xmlns="http://www.w3.org/2000/svg">
<g clip-path="url(#clip0_1_99)">
<path d="M49.3176 37.0501C48.7147 36.6938 48.2323 36.3376 47.9912 35.7438C47.6294 35.1501 47.5089 34.5563 47.5089 33.8438C47.5089 33.1313 47.6294 32.5376 47.9912 31.9438C48.3529 31.3501 48.8352 30.9938 49.3176 30.6376C49.9205 30.2813 50.5234 30.1626 51.2469 30.1626C51.8498 30.1626 52.3321 30.2813 52.8144 30.4001C53.2967 30.5188 53.6585 30.8751 54.0202 31.2313L53.5379 31.7063C52.935 31.1126 52.2115 30.8751 51.3674 30.8751C50.7645 30.8751 50.2822 30.9938 49.7999 31.2313C49.3176 31.4688 48.9558 31.8251 48.7147 32.3001C48.4735 32.7751 48.3529 33.2501 48.3529 33.8438C48.3529 34.4376 48.4735 34.9126 48.7147 35.3876C48.9558 35.8626 49.3176 36.2188 49.7999 36.4563C50.2822 36.6938 50.7645 36.8126 51.3674 36.8126C52.2115 36.8126 52.935 36.5751 53.5379 35.9813L54.0202 36.4563C53.6585 36.8126 53.2967 37.0501 52.8144 37.2876C52.3321 37.5251 51.8498 37.5251 51.2469 37.5251C50.5234 37.5251 49.9205 37.4063 49.3176 37.0501Z" fill="#EBE7E5"/>
<path d="M60.6522 37.5251L58.964 35.1501C58.7229 35.1501 58.6023 35.1501 58.3611 35.1501H56.4318V37.4063H55.7083V30.1626H58.4817C59.4463 30.1626 60.1698 30.4001 60.6522 30.8751C61.1345 31.3501 61.4962 31.9438 61.4962 32.6563C61.4962 33.2501 61.3756 33.7251 61.0139 34.0813C60.7727 34.4376 60.2904 34.7938 59.8081 34.9126L61.6168 37.4063H60.6522V37.5251ZM60.0493 34.0813C60.411 33.7251 60.6522 33.3688 60.6522 32.7751C60.6522 32.1813 60.411 31.7063 60.0493 31.4688C59.6875 30.9938 59.0846 30.8751 58.3611 30.8751H56.4318V34.5563H58.3611C59.0846 34.5563 59.6875 34.3188 60.0493 34.0813Z" fill="#EBE7E5"/>
<path d="M65.7165 34.9126V37.4063H64.9931V34.9126L62.0991 30.1626H62.9432L65.4754 34.2001L68.0076 30.1626H68.7311L65.7165 34.9126Z" fill="#EBE7E5"/>
<path d="M74.6395 30.8751C75.1219 31.3501 75.4836 31.9438 75.4836 32.6563C75.4836 33.4876 75.2424 34.0813 74.6395 34.4376C74.1572 34.9126 73.3132 35.1501 72.4691 35.1501H70.5398V37.4063H69.8163V30.1626H72.5897C73.4337 30.1626 74.1572 30.4001 74.6395 30.8751ZM74.0366 34.0813C74.3984 33.7251 74.6395 33.3688 74.6395 32.7751C74.6395 32.1813 74.3984 31.7063 74.0366 31.4688C73.6749 31.1126 73.072 30.9938 72.3485 30.9938H70.4192V34.6751H72.3485C73.1926 34.5563 73.6749 34.3188 74.0366 34.0813Z" fill="#EBE7E5"/>
<path d="M78.3775 30.8751H75.7248V30.1626H81.6332V30.8751H78.9804V37.5251H78.3775V30.8751Z" fill="#EBE7E5"/>
<path d="M84.0448 37.0501C83.4419 36.6938 82.9596 36.3376 82.5979 35.7438C82.2361 35.1501 82.1155 34.5563 82.1155 33.8438C82.1155 33.1313 82.2361 32.5376 82.5979 31.9438C82.9596 31.3501 83.4419 30.9938 84.0448 30.6376C84.6477 30.2813 85.2506 30.1626 85.9741 30.1626C86.6976 30.1626 87.4211 30.2813 87.9034 30.6376C88.5063 30.9938 88.9887 31.3501 89.2298 31.9438C89.5916 32.5376 89.7121 33.1313 89.7121 33.8438C89.7121 34.5563 89.5916 35.1501 89.2298 35.7438C88.8681 36.3376 88.3858 36.6938 87.9034 37.0501C87.3005 37.4063 86.6976 37.5251 85.9741 37.5251C85.2506 37.5251 84.6477 37.4063 84.0448 37.0501ZM87.6623 36.4563C88.1446 36.2188 88.5063 35.8626 88.7475 35.3876C88.9887 34.9126 89.1092 34.4376 89.1092 33.8438C89.1092 33.2501 88.9887 32.7751 88.7475 32.3001C88.5063 31.8251 88.1446 31.4688 87.6623 31.2313C87.1799 30.9938 86.6976 30.8751 86.0947 30.8751C85.4918 30.8751 85.0095 30.9938 84.5272 31.2313C84.0448 31.4688 83.6831 31.8251 83.4419 32.3001C83.2008 32.7751 83.0802 33.2501 83.0802 33.8438C83.0802 34.4376 83.2008 34.9126 83.4419 35.3876C83.6831 35.8626 84.0448 36.2188 84.5272 36.4563C85.0095 36.6938 85.4918 36.8126 86.0947 36.8126C86.6976 36.8126 87.1799 36.6938 87.6623 36.4563Z" fill="#EBE7E5"/>
<path d="M94.4148 30.1626H95.2589V37.4063H94.5354V30.1626H94.4148Z" fill="#EBE7E5"/>
<path d="M98.1528 37.2876C97.6705 37.1688 97.3087 36.9313 96.947 36.5751L97.3087 35.9813C97.5499 36.2188 97.9116 36.4563 98.394 36.5751C98.8763 36.6938 99.238 36.8126 99.7203 36.8126C100.323 36.8126 100.926 36.6938 101.167 36.4563C101.529 36.2188 101.65 35.8626 101.65 35.5063C101.65 35.2688 101.529 35.0313 101.408 34.7938C101.288 34.6751 101.047 34.4376 100.806 34.4376C100.564 34.3188 100.203 34.2001 99.7203 34.0813C99.1174 33.9626 98.7557 33.8438 98.394 33.7251C98.0322 33.6063 97.7911 33.3688 97.5499 33.1313C97.3087 32.8938 97.1881 32.5376 97.1881 32.0626C97.1881 31.7063 97.3087 31.3501 97.4293 31.1126C97.6705 30.7563 97.9116 30.5188 98.394 30.4001C98.8763 30.2813 99.3586 30.1626 99.9615 30.1626C100.444 30.1626 100.806 30.1626 101.167 30.2813C101.529 30.4001 101.891 30.5188 102.253 30.7563L102.011 31.3501C101.65 31.1126 101.408 30.9938 101.047 30.8751C100.685 30.7563 100.323 30.7563 99.9615 30.7563C99.3586 30.7563 98.8763 30.8751 98.5145 31.1126C98.1528 31.3501 98.0322 31.7063 98.0322 32.0626C98.0322 32.3001 98.1528 32.5376 98.2734 32.7751C98.394 32.8938 98.6351 33.1313 98.9969 33.1313C99.238 33.2501 99.5998 33.3688 100.082 33.4876C100.564 33.6063 101.047 33.7251 101.408 33.8438C101.77 33.9626 102.011 34.2001 102.253 34.4376C102.494 34.6751 102.614 35.0313 102.614 35.5063C102.614 35.8626 102.494 36.2188 102.373 36.4563C102.132 36.8126 101.891 37.0501 101.408 37.1688C101.047 37.2876 100.444 37.4063 99.8409 37.4063C99.1174 37.5251 98.6351 37.4063 98.1528 37.2876Z" fill="#EBE7E5"/>
<path d="M107.317 37.2876C106.835 37.1688 106.473 36.9313 106.111 36.5751L106.473 35.9813C106.714 36.2188 107.076 36.4563 107.558 36.5751C108.04 36.6938 108.402 36.8126 108.884 36.8126C109.487 36.8126 110.09 36.6938 110.331 36.4563C110.693 36.2188 110.814 35.8626 110.814 35.5063C110.814 35.2688 110.693 35.0313 110.573 34.7938C110.452 34.6751 110.211 34.4376 109.97 34.4376C109.729 34.3188 109.367 34.2001 108.884 34.0813C108.282 33.9626 107.92 33.8438 107.558 33.7251C107.196 33.6063 106.955 33.3688 106.714 33.1313C106.473 32.8938 106.352 32.5376 106.352 32.0626C106.352 31.7063 106.473 31.3501 106.593 31.1126C106.835 30.7563 107.076 30.5188 107.558 30.4001C108.04 30.2813 108.523 30.1626 109.126 30.1626C109.487 30.1626 109.97 30.1626 110.331 30.2813C110.693 30.4001 111.055 30.5188 111.417 30.7563L111.176 31.3501C110.814 31.1126 110.573 30.9938 110.211 30.8751C109.849 30.7563 109.487 30.7563 109.126 30.7563C108.523 30.7563 108.04 30.8751 107.679 31.1126C107.317 31.3501 107.196 31.7063 107.196 32.0626C107.196 32.3001 107.317 32.5376 107.438 32.7751C107.558 32.8938 107.799 33.1313 108.161 33.1313C108.402 33.2501 108.764 33.3688 109.246 33.4876C109.729 33.6063 110.211 33.7251 110.573 33.8438C110.934 33.9626 111.176 34.2001 111.417 34.4376C111.658 34.6751 111.778 35.0313 111.778 35.5063C111.778 35.8626 111.658 36.2188 111.537 36.4563C111.296 36.8126 111.055 37.0501 110.573 37.1688C110.211 37.2876 109.608 37.4063 109.005 37.4063C108.402 37.5251 107.799 37.4063 107.317 37.2876Z" fill="#EBE7E5"/>
<path d="M113.346 30.1626H114.069V37.4063H113.346V30.1626Z" fill="#EBE7E5"/>
<path d="M124.198 30.1626V37.4063H123.475V31.5876L120.581 36.4563H120.219L117.325 31.5876V37.4063H116.602V30.1626H117.205L120.46 35.5063L123.595 30.1626H124.198Z" fill="#EBE7E5"/>
<path d="M131.554 30.8751C132.036 31.3501 132.398 31.9438 132.398 32.6563C132.398 33.4876 132.157 34.0813 131.554 34.4376C131.071 34.9126 130.227 35.1501 129.383 35.1501H127.454V37.4063H126.61V30.1626H129.383C130.348 30.1626 131.071 30.4001 131.554 30.8751ZM131.071 34.0813C131.433 33.7251 131.674 33.3688 131.674 32.7751C131.674 32.1813 131.433 31.7063 131.071 31.4688C130.71 31.1126 130.107 30.9938 129.383 30.9938H127.454V34.6751H129.383C130.107 34.5563 130.589 34.3188 131.071 34.0813Z" fill="#EBE7E5"/>
<path d="M134.086 30.1626H134.809V36.8126H138.909V37.5251H133.965V30.1626H134.086Z" fill="#EBE7E5"/>
<path d="M145.541 36.8125V37.525H140.356V30.2812H145.42V30.875H141.08V33.4875H144.938V34.2H141.08V36.8125H145.541Z" fill="#EBE7E5"/>
<path d="M93.8119 0H99.5998V24.8188H93.8119V0Z" fill="#EBE7E5"/>
<path d="M82.1155 0V15.0813L69.5751 0H64.7519H63.9078V13.6562C63.9078 15.9125 63.4255 17.575 62.4609 18.6437C61.4962 19.7125 60.1698 20.1875 58.3611 20.1875C54.6231 20.1875 52.8144 18.05 52.8144 13.5375V0H47.0265V13.8938C47.0265 17.4562 47.9912 20.3062 50.041 22.325C51.9703 24.225 54.8643 25.2937 58.4817 25.2937C62.0991 25.2937 64.8725 24.3438 66.9224 22.325C68.8516 20.425 69.9369 17.575 69.9369 13.8938V8.66875L70.9015 9.7375L83.3213 24.8188H88.1446V0H82.1155Z" fill="#EBE7E5"/>
<path d="M34.8479 0H3.73801C1.68813 0 0 1.6625 0 3.5625V34.3187C0 36.3375 1.68813 38 3.73801 38H34.8479C36.8977 38 38.5859 36.3375 38.5859 34.3187V3.5625C38.5859 1.6625 36.8977 0 34.8479 0ZM35.8125 19H18.9312V35.625H18.0871C18.0871 26.8375 10.8523 19.8313 2.04987 19.8313V19H18.9312V2.375H19.6547C19.6547 11.1625 26.8895 18.1688 35.6919 18.1688V19H35.8125Z" fill="#EBE7E5"/>
<path d="M108.523 23.9875C106.835 23.3938 105.508 22.6812 104.664 21.7312L105.629 19.7125C106.473 20.5438 107.679 21.2563 109.246 21.85C110.693 22.325 112.261 22.6812 113.828 22.6812C115.999 22.6812 117.687 22.325 118.772 21.4937C119.857 20.7812 120.46 19.7125 120.46 18.4062C120.46 17.4562 120.219 16.625 119.616 16.0312C119.013 15.4375 118.29 15.0812 117.446 14.725C116.602 14.4875 115.396 14.1313 113.828 13.775C112.02 13.3 110.452 12.9438 109.367 12.4688C108.282 12.1125 107.317 11.4 106.473 10.5687C105.749 9.7375 105.267 8.55 105.267 7.00625C105.267 5.81875 105.629 4.63125 106.232 3.68125C106.835 2.73125 107.92 1.9 109.246 1.30625C110.573 0.7125 112.261 0 114.311 0C115.758 0 117.084 0.11875 118.531 0.59375C119.978 1.06875 121.063 1.425 122.028 2.1375L121.184 4.15625C120.219 3.5625 119.013 2.96875 117.807 2.6125C116.602 2.25625 115.516 2.1375 114.311 2.1375C112.14 2.1375 110.452 2.49375 109.367 3.325C108.282 4.15625 107.679 5.225 107.679 6.53125C107.679 7.48125 107.92 8.3125 108.523 8.90625C109.126 9.5 109.849 9.975 110.814 10.2125C111.658 10.45 112.984 10.8062 114.431 11.1625C116.24 11.6375 117.687 11.9937 118.893 12.4688C119.978 12.825 120.943 13.5375 121.787 14.3688C122.51 15.2 122.992 16.3875 122.992 17.9312C122.992 19.1187 122.631 20.3062 122.028 21.2563C121.425 22.2062 120.34 23.0375 118.893 23.6313C117.566 24.225 115.758 24.4625 113.708 24.4625C112.02 24.9375 110.211 24.5813 108.523 23.9875Z" fill="#EBE7E5"/>
<path d="M133.362 2.3749H124.56V0.118652H144.697V2.3749H135.895V24.6999H133.242L133.362 2.3749Z" fill="#EBE7E5"/>
<path d="M166.522 22.4437V24.6999H148.917V0.118652H166.04V2.3749H151.57V11.0437H164.472V13.1812H151.57V22.3249H166.522V22.4437Z" fill="#EBE7E5"/>
<path d="M187.985 24.7L179.907 13.8938L171.948 24.7H168.934L178.46 12.1125L169.537 0.237549H172.551L180.027 10.2125L187.503 0.237549H190.277L181.474 12.1125L191 24.8188H187.985V24.7Z" fill="#EBE7E5"/>
</g>
<defs>
<clipPath id="clip0_1_99">
<rect width="191" height="38" fill="white"/>
</clipPath>
</defs>
</svg>
