<svg width="87" height="87" viewBox="0 0 87 87" fill="none" xmlns="http://www.w3.org/2000/svg">
<g style="mix-blend-mode:screen" clip-path="url(#clip0_1_273)">
<path d="M78.9 0.430054H34.97C31.07 0.430054 27.74 3.57005 27.74 7.56005V15.6901C25.86 15.1201 23.84 14.6901 21.96 14.6901C11.84 14.6901 3.60999 22.8201 3.60999 32.8001C3.60999 39.5001 7.37 45.6301 13.29 48.7701H5.78V57.4701H0.869995V68.59H5.78V75.4301H0.869995V86.5501H78.76C82.66 86.5501 85.99 83.41 85.99 79.4201V7.56005C85.98 3.57005 82.8 0.430054 78.9 0.430054ZM38 68.59V75.4301H7.95V68.59H38ZM3.02999 66.4501V59.6101H33.09V66.4501H3.02999ZM83.81 73.7201V79.2801C83.81 81.9901 81.5 84.2701 78.75 84.2701H35.26V77.4301H40.17V73.7201H83.81ZM35.26 66.4501V59.6101H40.17V48.4801H30.49C36.41 45.3401 40.17 39.2101 40.17 32.5101C40.17 25.6701 36.12 19.2501 29.91 16.2601V14.6901H83.81V71.4401H40.17V66.3101H35.26V66.4501ZM21.96 48.6301C13 48.6301 5.78 41.5001 5.78 32.6601C5.78 23.8201 13.01 16.6901 21.96 16.6901C30.92 16.6901 38.14 23.8201 38.14 32.6601C38.15 41.5001 30.78 48.6301 21.96 48.6301ZM38 50.7701V57.4701H7.95V50.6301H38V50.7701ZM33.09 77.5701V84.4101H3.02999V77.5701H33.09ZM83.81 7.56005V12.8401H29.91V7.56005C29.91 4.85005 32.22 2.57005 34.97 2.57005H78.9C81.64 2.57005 83.81 4.85005 83.81 7.56005Z" fill="#4FFFCA"/>
<path d="M78.75 86.99H0.429993V75H5.33999V69.02H0.429993V57.03H5.33999V48.33H11.69C6.39999 44.93 3.17999 39.11 3.17999 32.8C3.17999 22.58 11.61 14.26 21.97 14.26C23.52 14.26 25.32 14.55 27.32 15.11V7.56C27.32 3.39 30.76 0 34.98 0H78.9C83.04 0 86.41 3.39 86.41 7.56V79.42C86.41 83.6 82.98 86.99 78.75 86.99ZM1.29999 86.12H78.75C82.49 86.12 85.54 83.12 85.54 79.42V7.56C85.54 3.87 82.56 0.86 78.89 0.86H34.97C31.23 0.86 28.18 3.86 28.18 7.56V16.27L27.62 16.1C25.48 15.45 23.58 15.12 21.97 15.12C12.09 15.12 4.04999 23.05 4.04999 32.79C4.04999 39.32 7.66999 45.29 13.5 48.38L15.04 49.2H6.20999V57.9H1.29999V68.15H6.20999V75.86H1.29999V86.12ZM33.52 84.85H2.59999V77.14H33.52V84.85ZM3.46999 83.98H32.66V78H3.46999V83.98ZM78.75 84.71H34.82V77H39.73V73.29H84.24V79.28C84.24 82.22 81.73 84.71 78.75 84.71ZM35.69 83.84H78.75C81.26 83.84 83.37 81.75 83.37 79.28V74.15H40.6V77.86H35.69V83.84ZM38.44 75.87H7.50999V68.16H38.43V75.87H38.44ZM8.37999 75H37.57V69.02H8.37999V75ZM84.24 71.87H39.74V66.74H35.26V66.45H34.83V59.17H39.74V48.92H28.74L30.28 48.1C36.11 45.01 39.73 39.04 39.73 32.51C39.73 25.81 35.8 19.58 29.72 16.65L29.47 16.53V14.26H84.24V71.87ZM40.6 71.01H83.37V15.13H30.35V15.99C36.59 19.11 40.61 25.57 40.61 32.51C40.61 38.82 37.38 44.64 32.09 48.05H40.61V60.04H35.7V65.87H40.61V71.01H40.6ZM33.52 66.88H2.59999V59.17H33.52V66.88ZM3.46999 66.02H32.66V60.04H3.46999V66.02ZM38.44 57.9H7.50999V50.19H38.43V57.9H38.44ZM8.37999 57.03H37.57V51.05H8.37999V57.03ZM21.96 49.06C12.8 49.06 5.33999 41.7 5.33999 32.66C5.33999 23.62 12.79 16.26 21.96 16.26C31.13 16.26 38.58 23.62 38.58 32.66C38.58 41.7 31.13 49.06 21.96 49.06ZM21.96 17.12C13.27 17.12 6.20999 24.09 6.20999 32.66C6.20999 41.23 13.28 48.2 21.96 48.2C30.64 48.2 37.71 41.23 37.71 32.66C37.71 24.09 30.65 17.12 21.96 17.12ZM84.24 13.27H29.48V7.56C29.48 4.62 31.99 2.14 34.97 2.14H78.9C81.85 2.14 84.25 4.57 84.25 7.56V13.27H84.24ZM30.35 12.41H83.38V7.56C83.38 5.05 81.37 3 78.9 3H34.97C32.46 3 30.35 5.09 30.35 7.56V12.41Z" fill="#4FFFCA"/>
<path d="M46.53 67.5901H54.91V48.2001H46.38V67.5901H46.53ZM52.74 50.3401V65.4501H48.55V50.3401H52.74Z" fill="#4FFFCA"/>
<path d="M55.34 68.02H45.95V47.77H55.34V68.02ZM46.82 67.16H54.48V48.63H46.82V67.16ZM53.18 65.89H48.12V49.9H53.18V65.89ZM48.99 65.02H52.31V50.77H48.99V65.02Z" fill="#4FFFCA"/>
<path d="M57.8 67.5899H66.33V35.9399H57.8V67.5899ZM64.16 38.0799V65.3099H59.97V38.0799H64.16Z" fill="#4FFFCA"/>
<path d="M66.76 68.02H57.37V35.5H66.76V68.02ZM58.23 67.16H65.89V36.37H58.23V67.16ZM64.59 65.74H59.53V37.64H64.59V65.74ZM60.4 64.88H63.72V38.51H60.4V64.88Z" fill="#4FFFCA"/>
<path d="M77.6 22.11H69.07V67.59H77.6V22.11ZM71.38 65.45V24.25H75.57V65.46H71.38V65.45Z" fill="#4FFFCA"/>
<path d="M78.03 68.02H68.64V21.67H78.03V68.02ZM69.5 67.16H77.16V22.54H69.5V67.16ZM76.01 65.89H70.95V23.81H76.01V65.89ZM71.82 65.02H75.14V24.68H71.82V65.02Z" fill="#4FFFCA"/>
<path d="M49.42 27.0999L54.19 32.5199L65.03 21.9699V25.6799H67.2V18.3999H59.54V20.5399H63.3L54.34 29.3799L49.57 23.9599L42.34 31.2299L43.78 32.6599L49.42 27.0999Z" fill="#4FFFCA"/>
<path d="M43.78 33.27L41.72 31.24L49.58 23.33L54.35 28.75L62.23 20.97H59.1V17.96H67.63V26.1H64.6V22.99L54.16 33.14L49.39 27.72L43.78 33.27ZM42.95 31.23L43.78 32.05L49.44 26.47L54.21 31.89L65.46 20.94V25.24H66.76V18.83H59.97V20.1H64.35L54.31 30L49.54 24.59L42.95 31.23Z" fill="#4FFFCA"/>
<path d="M57.8 6.28003H54.48V9.56003H57.8V6.28003Z" fill="#4FFFCA"/>
<path d="M58.23 9.98998H54.04V5.84998H58.23V9.98998ZM54.91 9.12998H57.37V6.70998H54.91V9.12998Z" fill="#4FFFCA"/>
<path d="M1.88 9.26997C4.34 9.26997 6.22 11.12 6.36 13.4H6.07L6.36 13.69C6.36 13.69 6.36 13.69 6.36 13.83V14.54L7.52 15.54L8.39 14.68L8.68 14.25V13.68C8.68 11.26 10.7 9.25997 13.16 9.25997H13.88L15.04 8.25997L14.32 7.39997L13.89 6.96997H13.31H13.17C10.71 6.96997 8.83 5.11997 8.69 2.83997H8.53C8.53 2.69997 8.53 2.69997 8.53 2.54997L8.67 1.83997L7.51 0.719971L6.65 1.56997L6.36 1.99997V2.56997V2.70997L6.07 2.99997H6.36C6.21 5.27997 4.19 7.13997 1.88 7.13997C1.88 7.13997 1.74 7.13997 1.59 7.13997H1.16L0 8.12997L0.87 8.98997L1.3 9.26997H1.88ZM7.51 6.13997C7.94 6.99997 8.67 7.56997 9.53 8.13997C8.66 8.70997 7.94 9.27997 7.51 10.14C6.93 9.27997 6.35 8.70997 5.49 8.13997C6.36 7.70997 6.94 6.98997 7.51 6.13997Z" fill="#4FFFCA"/>
<path d="M28.9 32.37C29.33 32.08 29.77 31.66 30.06 31.23C30.49 30.52 30.78 29.66 30.78 28.66C30.78 27.23 30.2 25.95 29.05 25.24C27.89 24.38 26.45 24.1 24.43 24.1H24.29V21.39H22.12V24.1H21.69V21.39H19.52V24.1H14.9V26.24H16.78V39.36H14.9V41.5H19.52V44.07H21.69V41.5H22.12V44.07H24.29V41.5H25C27.17 41.5 28.76 41.07 29.91 40.22C31.07 39.36 31.64 38.22 31.64 36.66C31.64 35.52 31.35 34.52 30.63 33.67C30.35 33.09 29.62 32.66 28.9 32.37ZM29.19 36.51C29.19 37.51 28.9 38.22 28.18 38.65C27.46 39.08 26.45 39.36 25 39.36H19.36V33.8H25C27.89 33.66 29.19 34.65 29.19 36.51ZM19.36 31.52V26.24H24.42C25.72 26.24 26.73 26.53 27.31 26.95C27.89 27.38 28.32 28.09 28.32 28.95C28.32 29.81 28.03 30.38 27.45 30.8C26.73 31.23 25.72 31.51 24.56 31.51H19.36V31.52Z" fill="#4FFFCA"/>
</g>
<defs>
<clipPath id="clip0_1_273">
<rect width="86.41" height="86.99" fill="white"/>
</clipPath>
</defs>
</svg>
